<svg width="52" height="37" viewBox="0 0 52 37" fill="none" xmlns="http://www.w3.org/2000/svg">
<path d="M50.9134 6.5464C50.3154 4.33861 48.5533 2.59983 46.3161 2.00975C42.2609 0.9375 26 0.9375 26 0.9375C26 0.9375 9.73923 0.9375 5.68394 2.00975C3.44668 2.59992 1.68463 4.33861 1.08659 6.5464C0 10.5481 0 18.8974 0 18.8974C0 18.8974 0 27.2467 1.08659 31.2484C1.68463 33.4562 3.44668 35.1225 5.68394 35.7126C9.73923 36.7849 26 36.7849 26 36.7849C26 36.7849 42.2608 36.7849 46.3161 35.7126C48.5533 35.1225 50.3154 33.4562 50.9134 31.2484C52 27.2467 52 18.8974 52 18.8974C52 18.8974 52 10.5481 50.9134 6.5464ZM20.6818 26.4779V11.3169L34.2726 18.8976L20.6818 26.4779Z" fill="#FAFAFA"/>
</svg>
