<svg width="42" height="41" viewBox="0 0 42 41" fill="none" xmlns="http://www.w3.org/2000/svg">
<path d="M21.0047 9.91299C15.0455 9.91299 10.2388 14.571 10.2388 20.3458C10.2388 26.1206 15.0455 30.7786 21.0047 30.7786C26.9639 30.7786 31.7706 26.1206 31.7706 20.3458C31.7706 14.571 26.9639 9.91299 21.0047 9.91299ZM21.0047 27.1285C17.1537 27.1285 14.0055 24.0867 14.0055 20.3458C14.0055 16.6049 17.1443 13.5631 21.0047 13.5631C24.865 13.5631 28.0039 16.6049 28.0039 20.3458C28.0039 24.0867 24.8557 27.1285 21.0047 27.1285ZM34.722 9.48623C34.722 10.8391 33.5977 11.9196 32.2109 11.9196C30.8148 11.9196 29.6998 10.8301 29.6998 9.48623C29.6998 8.1424 30.8242 7.05282 32.2109 7.05282C33.5977 7.05282 34.722 8.1424 34.722 9.48623ZM41.8524 11.956C41.6931 8.69628 40.9248 5.80887 38.4606 3.42993C36.0057 1.051 33.0261 0.306447 29.6624 0.143008C26.1955 -0.0476695 15.8045 -0.0476695 12.3376 0.143008C8.98327 0.297367 6.00368 1.04192 3.53943 3.42085C1.07518 5.79979 0.31623 8.6872 0.147574 11.9469C-0.0491913 15.3064 -0.0491913 25.3761 0.147574 28.7356C0.30686 31.9953 1.07518 34.8827 3.53943 37.2617C6.00368 39.6406 8.9739 40.3851 12.3376 40.5486C15.8045 40.7393 26.1955 40.7393 29.6624 40.5486C33.0261 40.3942 36.0057 39.6497 38.4606 37.2617C40.9154 34.8827 41.6838 31.9953 41.8524 28.7356C42.0492 25.3761 42.0492 15.3155 41.8524 11.956ZM37.3737 32.3403C36.6428 34.12 35.228 35.4911 33.3822 36.2084C30.6181 37.2707 24.0592 37.0256 21.0047 37.0256C17.9501 37.0256 11.3819 37.2617 8.62722 36.2084C6.79074 35.5002 5.37591 34.1291 4.63569 32.3403C3.53943 29.6618 3.79241 23.3058 3.79241 20.3458C3.79241 17.3857 3.5488 11.0207 4.63569 8.35124C5.36654 6.57158 6.78137 5.20051 8.62722 4.4832C11.3913 3.42085 17.9501 3.66601 21.0047 3.66601C24.0592 3.66601 30.6274 3.42993 33.3822 4.4832C35.2186 5.19143 36.6335 6.5625 37.3737 8.35124C38.4699 11.0298 38.217 17.3857 38.217 20.3458C38.217 23.3058 38.4699 29.6709 37.3737 32.3403Z" fill="#FAFAFA"/>
</svg>
