<svg width="44" height="41" viewBox="0 0 44 41" fill="none" xmlns="http://www.w3.org/2000/svg">
<path d="M39.2857 0H4.71429C3.46398 0 2.26488 0.459336 1.38078 1.27696C0.496682 2.09458 0 3.20352 0 4.35981V36.3318C0 37.4881 0.496682 38.597 1.38078 39.4146C2.26488 40.2323 3.46398 40.6916 4.71429 40.6916H18.1942V26.8574H12.0067V20.3458H18.1942V15.3829C18.1942 9.73782 21.8281 6.61965 27.3939 6.61965C30.0595 6.61965 32.8468 7.05926 32.8468 7.05926V12.5999H29.7756C26.7496 12.5999 25.8058 14.3365 25.8058 16.1177V20.3458H32.561L31.4806 26.8574H25.8058V40.6916H39.2857C40.536 40.6916 41.7351 40.2323 42.6192 39.4146C43.5033 38.597 44 37.4881 44 36.3318V4.35981C44 3.20352 43.5033 2.09458 42.6192 1.27696C41.7351 0.459336 40.536 0 39.2857 0Z" fill="#FAFAFA"/>
</svg>
